<svg width="25" height="22" viewBox="0 0 25 22" fill="none" xmlns="http://www.w3.org/2000/svg">
<path d="M5.72973 18.0997C5.72973 18.0997 5.39159 17.7615 7.44933 19.8193C9.50707 21.877 12.8596 22.1403 14.9432 20.0567C17.0268 17.9731 17.0495 14.3346 14.9918 12.2768C12.9341 10.2191 10.7029 7.98788 10.7029 7.98788C9.67864 6.96367 9.68918 5.27715 10.7263 4.24006C11.7634 3.20297 13.4499 3.19243 14.4741 4.21665L16.947 6.68957C16.2444 8.1743 16.4767 9.99047 17.6871 11.2009C19.2328 12.7465 21.7438 12.7308 23.3089 11.1658C24.8739 9.60072 24.8896 7.08968 23.344 5.54405C22.1335 4.33362 20.3174 4.10136 18.8326 4.80396L16.3593 2.33062C14.3016 0.272883 10.9473 0.293835 8.86365 2.37744C6.78005 4.46105 6.75909 7.81535 8.81683 9.87309L13.1062 14.1624C14.1304 15.1866 14.2625 17.0158 13.2254 18.0529C12.1883 19.09 10.3592 18.9579 9.33494 17.9337C8.31073 16.9095 7.61535 16.2141 7.61535 16.2141C8.02354 15.3665 8.12084 14.4057 7.89005 13.5013C7.65926 12.5969 7.11524 11.8072 6.35409 11.2717C5.59294 10.7361 4.66363 10.4892 3.73032 10.5745C2.79701 10.6598 1.91976 11.0719 1.25352 11.7379C-0.311543 13.3029 -0.327229 15.814 1.2184 17.3596C2.42884 18.57 4.24501 18.8023 5.72973 18.0997Z" fill="#3B4472"/>
</svg>
