<svg width="20" height="19" viewBox="0 0 20 19" fill="none" xmlns="http://www.w3.org/2000/svg">
<path d="M10.4241 15.8396L15.2737 18.8752C15.8936 19.2632 16.6632 18.6861 16.4793 17.9712L15.0782 12.5256C15.0387 12.3739 15.0434 12.2143 15.0916 12.0652C15.1399 11.916 15.2298 11.7833 15.351 11.6824L19.6998 8.10625C20.2712 7.63636 19.9763 6.69942 19.2421 6.65234L13.5629 6.28818C13.4099 6.27738 13.2632 6.22388 13.1398 6.13388C13.0164 6.04389 12.9215 5.92113 12.866 5.77988L10.7479 0.509939C10.6903 0.360014 10.5879 0.230941 10.4543 0.13986C10.3208 0.0487793 10.1623 0 10 0C9.8377 0 9.67924 0.0487793 9.54566 0.13986C9.41208 0.230941 9.30971 0.360014 9.25213 0.509939L7.13402 5.77988C7.07853 5.92113 6.98356 6.04389 6.86018 6.13388C6.7368 6.22388 6.59008 6.27738 6.43711 6.28818L0.757887 6.65234C0.0237462 6.69942 -0.271183 7.63636 0.300229 8.10625L4.64901 11.6824C4.7702 11.7833 4.8601 11.916 4.90837 12.0652C4.95663 12.2143 4.96131 12.3739 4.92185 12.5256L3.62244 17.5758C3.40171 18.4337 4.32528 19.1262 5.06916 18.6606L9.57586 15.8396C9.70261 15.7599 9.84975 15.7175 10 15.7175C10.1503 15.7175 10.2974 15.7599 10.4241 15.8396Z" fill="#3B4472"/>
</svg>
