<svg width="80" height="18" viewBox="0 0 80 18" fill="none" xmlns="http://www.w3.org/2000/svg">
<path d="M17.9678 8.24517C17.5814 3.78932 13.9105 0.237487 9.46693 0.0114831C4.28267 -0.246829 0 3.88613 0 9.05237C0 13.6051 3.38107 17.3829 7.76027 17.9964C7.95347 18.0287 8.11447 17.835 8.01787 17.6735C7.88907 17.3506 7.72807 16.8663 7.69587 16.2205C7.66367 15.7362 7.72807 15.2841 7.95347 14.7353C8.14667 14.1863 8.56527 13.702 9.01607 13.4114C9.46693 13.0885 9.66013 12.9593 10.3041 12.7656C10.9159 12.5719 11.3667 12.249 11.7853 11.7969C11.9785 11.5709 12.1717 11.3449 12.3327 11.0866C12.4937 10.8283 12.6225 10.57 12.7191 10.2793C12.9123 9.73045 12.9445 9.11693 12.8479 8.50349C12.7835 7.92229 12.5581 7.34108 12.2361 6.85676C11.9141 6.37237 11.4633 5.95261 10.9481 5.66205C10.4329 5.37141 9.88553 5.17772 9.27373 5.14541C8.69407 5.11316 8.08227 5.20997 7.56707 5.40373C6.50447 5.8558 5.60287 6.79213 5.28087 7.92228C5.11987 8.47117 5.05547 9.11693 5.18427 9.73045C5.28087 10.3116 5.50627 10.8929 5.86047 11.3126C6.11807 11.6678 6.24687 12.249 5.92487 12.6688C5.40967 13.3791 4.37927 13.3468 3.92847 12.6688C3.38107 11.8938 2.9946 10.9897 2.8658 10.0533C2.7048 9.11693 2.7692 8.14829 3.05907 7.24421C3.60647 5.40373 5.02327 3.91845 6.76207 3.20812C7.66367 2.88517 8.66187 2.72373 9.59573 2.82061C10.5295 2.88517 11.4311 3.20812 12.2361 3.69244C13.0411 4.17676 13.7173 4.82253 14.2325 5.62973C14.7477 6.40469 15.102 7.30877 15.1986 8.24517C15.3274 9.18156 15.2308 10.1179 14.9409 11.022C14.7799 11.4741 14.4901 12.1521 14.2003 12.5396C13.2021 13.8957 12.1717 14.5415 11.0769 14.9289C10.2397 15.2196 9.91773 15.7685 10.1753 16.4465C10.6261 17.5444 12.1395 17.4798 12.5581 17.2861C16.0036 15.8977 18.322 12.2813 17.9678 8.24517ZM9.01607 7.47021C9.88553 7.47021 10.5939 8.1806 10.5939 9.05237C10.5939 9.9242 9.88553 10.6345 9.01607 10.6345C8.14667 10.6345 7.43827 9.9242 7.43827 9.05237C7.43827 8.1806 8.14667 7.47021 9.01607 7.47021Z" fill="white" fill-opacity="0.8"/>
<path d="M22.8987 2.59992H24.7396C24.998 2.59992 25.2241 2.82539 25.2241 3.08312V12.1347C25.2241 12.8434 25.5147 13.1977 26.1284 13.1977C26.2576 13.1977 26.4191 13.1655 26.5805 13.1333L26.6775 13.1011C26.9035 13.0367 27.0973 13.1977 27.1296 13.391L27.3557 14.7117C27.388 14.9049 27.2588 15.1305 27.065 15.1949C26.8066 15.2915 26.5159 15.3881 26.193 15.4526C25.7408 15.5492 25.3209 15.5814 24.9011 15.5814C24.0937 15.5814 23.48 15.3559 23.0279 14.9372C22.608 14.5184 22.3819 13.9064 22.3819 13.1011V3.08312C22.4142 2.82539 22.6403 2.59992 22.8987 2.59992Z" fill="white" fill-opacity="0.8"/>
<path d="M32.9431 15.5814C32.1679 15.5814 31.4574 15.4526 30.8438 15.1948C30.2301 14.9372 29.7134 14.5829 29.2935 14.1641C28.8737 13.7131 28.5507 13.2299 28.3246 12.6501C28.0985 12.0703 28.0016 11.4582 28.0016 10.8462C28.0016 10.2019 28.0985 9.62214 28.3246 9.04233C28.5507 8.46253 28.8737 7.94715 29.2935 7.52839C29.7134 7.07738 30.2301 6.72305 30.8438 6.46533C31.4574 6.20767 32.1679 6.07881 32.9431 6.07881C33.7182 6.07881 34.4287 6.20767 35.0424 6.46533C35.6561 6.72305 36.1728 7.07738 36.5927 7.52839C37.0125 7.97933 37.3355 8.46253 37.5616 9.04233C37.7877 9.62214 37.8845 10.2342 37.8845 10.8462C37.8845 11.4905 37.7877 12.0703 37.5616 12.6501C37.3355 13.2299 37.0125 13.7453 36.5927 14.1641C36.1728 14.615 35.6561 14.9372 35.0424 15.1948C34.4287 15.4526 33.7182 15.5814 32.9431 15.5814ZM30.8761 10.814C30.8761 11.5549 31.0699 12.1347 31.4574 12.5535C31.845 13.0044 32.3295 13.1977 32.9431 13.1977C33.2337 13.1977 33.4921 13.1333 33.7505 13.0367C34.0089 12.9078 34.2027 12.7468 34.3965 12.5535C34.5903 12.328 34.7195 12.1025 34.8163 11.7804C34.9132 11.4905 34.9778 11.1683 34.9778 10.814C34.9778 10.0731 34.784 9.49327 34.3965 9.07458C34.0089 8.62357 33.5245 8.43028 32.9431 8.43028C32.6524 8.43028 32.3617 8.49471 32.1357 8.59139C31.8773 8.72018 31.6512 8.88129 31.4897 9.07458C31.2959 9.30005 31.1667 9.52552 31.0699 9.84761C30.9407 10.1376 30.8761 10.4597 30.8761 10.814Z" fill="white" fill-opacity="0.8"/>
<path d="M45.2806 15.1305L43.0521 11.7159L42.0509 12.7468V14.9372C42.0509 15.1949 41.8248 15.4204 41.5664 15.4204H39.7255C39.4671 15.4204 39.241 15.1949 39.241 14.9372V3.08312C39.241 2.82539 39.4671 2.59992 39.7255 2.59992H41.5664C41.8248 2.59992 42.0509 2.82539 42.0509 3.08312V9.39666C42.0509 9.58995 42.3093 9.68657 42.4384 9.52552L45.0222 6.36872C45.1191 6.23986 45.2483 6.17549 45.4097 6.17549H47.3799C47.7029 6.17549 47.8643 6.52982 47.6705 6.78748L44.8607 10.1376L48.0581 14.8083C48.2196 15.066 48.0581 15.3881 47.7351 15.3881H45.7973C45.6035 15.4204 45.4097 15.3237 45.2806 15.1305Z" fill="white" fill-opacity="0.8"/>
<path d="M49.5115 14.9372V6.69087C49.5115 6.43315 49.7376 6.20767 49.996 6.20767H51.8369C52.0953 6.20767 52.3213 6.43315 52.3213 6.69087V14.9372C52.3213 15.1948 52.0953 15.4204 51.8369 15.4204H49.996C49.7376 15.4204 49.5115 15.1948 49.5115 14.9372Z" fill="white" fill-opacity="0.8"/>
<path d="M68.3733 15.4204H66.532C66.274 15.4204 66.0473 15.1948 66.0473 14.9372V10.2342C66.0473 9.62214 65.9507 9.17119 65.7247 8.91347C65.4987 8.62357 65.208 8.49471 64.8527 8.49471C64.6587 8.49471 64.4653 8.52696 64.2713 8.62357C64.0773 8.72018 63.884 8.81686 63.722 8.9779C63.5607 9.13894 63.3993 9.30005 63.27 9.49327C63.1407 9.68657 63.012 9.91204 62.9473 10.1376V14.9372C62.9473 15.1948 62.7213 15.4204 62.4627 15.4204H60.6217C60.3633 15.4204 60.1373 15.1948 60.1373 14.9372V10.2342C60.1373 9.62214 60.0404 9.17119 59.8143 8.91347C59.5882 8.62357 59.2975 8.49471 58.9423 8.49471C58.5547 8.49471 58.1995 8.65582 57.8442 8.94572C57.4889 9.23562 57.2305 9.65438 57.0691 10.1376V14.9372C57.0691 15.1948 56.8429 15.4204 56.5846 15.4204H54.7437C54.4853 15.4204 54.2592 15.1948 54.2592 14.9372V6.69087C54.2592 6.43315 54.4853 6.20767 54.7437 6.20767H56.2939C56.5523 6.20767 56.7784 6.43315 56.7784 6.69087V7.75386C57.1337 7.20624 57.5858 6.7553 58.1671 6.46533C58.7485 6.17543 59.4267 6.01438 60.2019 6.01438C60.5894 6.01438 60.9124 6.04663 61.2031 6.14324C61.494 6.23986 61.752 6.36872 61.946 6.52976C62.172 6.69087 62.3333 6.88409 62.4627 7.10963C62.592 7.3351 62.6887 7.56057 62.7533 7.81829C63.1087 7.23842 63.5607 6.78748 64.142 6.49758C64.7233 6.17543 65.3693 6.04663 66.112 6.04663C66.6933 6.04663 67.178 6.14324 67.5333 6.36872C67.8887 6.59419 68.1793 6.85191 68.3733 7.20624C68.5667 7.56057 68.696 7.9149 68.7607 8.33367C68.8253 8.75243 68.8573 9.13894 68.8573 9.52552V14.9372C68.8573 15.1948 68.664 15.4204 68.3733 15.4204Z" fill="white" fill-opacity="0.8"/>
<path d="M75.0587 15.5814C74.2833 15.5814 73.5727 15.4526 72.9593 15.1948C72.3453 14.9372 71.8287 14.5829 71.4087 14.1641C70.9893 13.7131 70.666 13.2299 70.44 12.6501C70.214 12.0703 70.1173 11.4582 70.1173 10.8462C70.1173 10.2019 70.214 9.62214 70.44 9.04233C70.666 8.46253 70.9893 7.94715 71.4087 7.52839C71.8287 7.07738 72.3453 6.72305 72.9593 6.46533C73.5727 6.20767 74.2833 6.07881 75.0587 6.07881C75.834 6.07881 76.544 6.20767 77.158 6.46533C77.7713 6.72305 78.288 7.07738 78.708 7.52839C79.128 7.97933 79.4507 8.46253 79.6773 9.04233C79.9033 9.62214 80 10.2342 80 10.8462C80 11.4905 79.9033 12.0703 79.6773 12.6501C79.4507 13.2299 79.128 13.7453 78.708 14.1641C78.288 14.615 77.7713 14.9372 77.158 15.1948C76.544 15.4526 75.834 15.5814 75.0587 15.5814ZM72.9913 10.814C72.9913 11.5549 73.1853 12.1347 73.5727 12.5535C73.9607 13.0044 74.4447 13.1977 75.0587 13.1977C75.3493 13.1977 75.6073 13.1333 75.866 13.0367C76.1247 12.9078 76.318 12.7468 76.512 12.5535C76.706 12.328 76.8347 12.1025 76.932 11.7804C77.0287 11.4905 77.0933 11.1683 77.0933 10.814C77.0933 10.0731 76.8993 9.49327 76.512 9.07458C76.1247 8.62357 75.64 8.43028 75.0587 8.43028C74.768 8.43028 74.4773 8.49471 74.2513 8.59139C73.9927 8.72018 73.7667 8.88129 73.6053 9.07458C73.4113 9.30005 73.282 9.52552 73.1853 9.84761C73.056 10.1376 72.9913 10.4597 72.9913 10.814Z" fill="white" fill-opacity="0.8"/>
<path d="M50.9326 4.95139C51.8423 4.95139 52.5797 4.21586 52.5797 3.30859C52.5797 2.40125 51.8423 1.66572 50.9326 1.66572C50.0229 1.66572 49.2855 2.40125 49.2855 3.30859C49.2855 4.21586 50.0229 4.95139 50.9326 4.95139Z" fill="white" fill-opacity="0.8"/>
</svg>
