<svg width="21" height="24" viewBox="0 0 21 24" fill="none" xmlns="http://www.w3.org/2000/svg">
<path d="M4.42035 12.0002H10.9964M19.5796 11.2516L2.22363 1.10936C2.07762 1.02404 1.91013 0.987249 1.74354 1.00392C1.57696 1.02058 1.41922 1.08991 1.29141 1.20263C1.16359 1.31535 1.07179 1.4661 1.02828 1.63472C0.984761 1.80334 0.991604 1.98181 1.04789 2.14626L4.32161 11.7115C4.38546 11.8981 4.38546 12.1019 4.32161 12.2885L1.04789 21.8537C0.991603 22.0182 0.984761 22.1967 1.02828 22.3653C1.07179 22.5339 1.16359 22.6846 1.29141 22.7974C1.41922 22.9101 1.57696 22.9794 1.74355 22.9961C1.91013 23.0128 2.07762 22.976 2.22363 22.8906L19.5796 12.7484C19.7071 12.6739 19.8133 12.5653 19.8872 12.4337C19.9611 12.3022 20 12.1525 20 12C20 11.8475 19.9611 11.6978 19.8872 11.5663C19.8133 11.4347 19.7071 11.3261 19.5796 11.2516Z" stroke="#FAFAFA" stroke-linecap="round" stroke-linejoin="round"/>
</svg>
